<svg width="32" height="32" viewBox="0 0 32 32" fill="none" xmlns="http://www.w3.org/2000/svg">
<rect width="32" height="32" rx="5" fill="#395FE7"/>
<path d="M12.4527 20.7169C11.9247 20.7169 11.4647 20.6169 11.0727 20.4169C10.6887 20.2169 10.3887 19.9289 10.1727 19.5529C9.96467 19.1689 9.86067 18.7169 9.86067 18.1969V14.2369C9.86067 13.7089 9.96467 13.2569 10.1727 12.8809C10.3887 12.5049 10.6887 12.2169 11.0727 12.0169C11.4647 11.8169 11.9247 11.7169 12.4527 11.7169C12.9807 11.7169 13.4367 11.8209 13.8207 12.0289C14.2047 12.2289 14.5007 12.5169 14.7087 12.8929C14.9167 13.2689 15.0207 13.7169 15.0207 14.2369H13.9407C13.9407 13.7409 13.8087 13.3609 13.5447 13.0969C13.2887 12.8249 12.9247 12.6889 12.4527 12.6889C11.9807 12.6889 11.6087 12.8209 11.3367 13.0849C11.0727 13.3489 10.9407 13.7289 10.9407 14.2249V18.1969C10.9407 18.6929 11.0727 19.0769 11.3367 19.3489C11.6087 19.6129 11.9807 19.7449 12.4527 19.7449C12.9247 19.7449 13.2887 19.6129 13.5447 19.3489C13.8087 19.0769 13.9407 18.6929 13.9407 18.1969H15.0207C15.0207 18.7089 14.9167 19.1569 14.7087 19.5409C14.5007 19.9169 14.2047 20.2089 13.8207 20.4169C13.4367 20.6169 12.9807 20.7169 12.4527 20.7169ZM19.648 20.7169C19.072 20.7169 18.576 20.6209 18.16 20.4289C17.752 20.2369 17.436 19.9609 17.212 19.6009C16.988 19.2409 16.872 18.8129 16.864 18.3169H17.944C17.944 18.7569 18.092 19.1049 18.388 19.3609C18.692 19.6169 19.112 19.7449 19.648 19.7449C20.152 19.7449 20.544 19.6209 20.824 19.3729C21.112 19.1249 21.256 18.7809 21.256 18.3409C21.256 17.9889 21.16 17.6809 20.968 17.4169C20.784 17.1529 20.516 16.9689 20.164 16.8649L18.976 16.4929C18.376 16.3089 17.912 16.0009 17.584 15.5689C17.264 15.1369 17.104 14.6289 17.104 14.0449C17.104 13.5729 17.208 13.1649 17.416 12.8209C17.632 12.4689 17.932 12.1969 18.316 12.0049C18.7 11.8049 19.152 11.7049 19.672 11.7049C20.44 11.7049 21.056 11.9209 21.52 12.3529C21.984 12.7769 22.22 13.3449 22.228 14.0569H21.148C21.148 13.6249 21.016 13.2889 20.752 13.0489C20.496 12.8009 20.132 12.6769 19.66 12.6769C19.196 12.6769 18.832 12.7889 18.568 13.0129C18.312 13.2369 18.184 13.5489 18.184 13.9489C18.184 14.3089 18.28 14.6209 18.472 14.8849C18.664 15.1489 18.94 15.3369 19.3 15.4489L20.5 15.8329C21.084 16.0169 21.536 16.3289 21.856 16.7689C22.176 17.2089 22.336 17.7249 22.336 18.3169C22.336 18.7969 22.224 19.2169 22 19.5769C21.776 19.9369 21.46 20.2169 21.052 20.4169C20.652 20.6169 20.184 20.7169 19.648 20.7169Z" fill="white"/>
</svg>
